<?xml version="1.0" encoding="UTF-8"?>
<!DOCTYPE svg PUBLIC "-//W3C//DTD SVG 1.1//EN" "http://www.w3.org/Graphics/SVG/1.1/DTD/svg11.dtd">
<!-- Creator: CorelDRAW X7 -->
<svg xmlns="http://www.w3.org/2000/svg" xml:space="preserve" width="650px" height="651px" version="1.1" style="shape-rendering:geometricPrecision; text-rendering:geometricPrecision; image-rendering:optimizeQuality; fill-rule:evenodd; clip-rule:evenodd"
viewBox="0 0 604695 605220"
 xmlns:xlink="http://www.w3.org/1999/xlink">
 <defs>
  <style type="text/css">
   <![CDATA[
    .fil0 {fill:white}
   ]]>
  </style>
 </defs>
 <g id="Layer_x0020_1">
  <metadata id="CorelCorpID_0Corel-Layer"/>
  <g id="_2147596733056">
   <path class="fil0" d="M295835 342876l-5582 0c-11545,0 -23256,-11884 -23256,-23258l0 -6511c0,-12424 11972,-23258 27909,-23258 20348,0 32964,27895 17115,45026l-6842 5251c-2600,1345 -5343,2750 -9344,2750zm-102332 -28840c0,26652 10581,53858 28592,71880 13613,13623 28848,22476 48048,27306 15742,3960 19736,2880 33110,2193 9266,-477 22033,-4617 30067,-8076 41717,-17958 67200,-68058 56683,-113975 -1395,-6086 -3667,-13868 -6088,-19032 -7978,-17019 -9319,-16753 -20016,-30220 -2115,-2663 -3956,-3364 -6429,-5664 -17379,-16156 -40182,-23632 -63574,-24865 -3280,-173 -6702,712 -11061,936 -9246,476 -22055,4617 -30065,8076 -33482,14458 -59267,51185 -59267,91441z"/>
   <path class="fil0" d="M203736 567078c0,32746 908,37570 22843,38142l22742 0c22757,0 43556,-930 66981,-930 7706,0 112494,1120 117289,-860 10956,-4523 12633,-21084 17024,-34142 7750,-23048 57329,-175379 57329,-180827 0,-16267 -12065,-16882 -30120,-22907 -6330,-2112 -12507,-3852 -18374,-5814 -34011,-11373 -30194,-7266 -42557,29769l-54417 168856c-4917,8786 -12730,7803 -20124,7784l-138616 929z"/>
   <path class="fil0" d="M0 327991c0,9215 13724,48256 17551,59665l36767 113940c2985,8979 9431,35129 15171,40648 3552,3414 7638,5298 14238,5298l204666 0c9746,0 15815,-7708 15815,-17676l0 -54887c0,-20880 -24722,-15816 -39073,-15816l-164668 7c-9565,49 -16568,-586 -21165,-5815 -3268,-3717 -18121,-52919 -21055,-61743l-19744 -62121c-2295,-6903 -5310,-14331 -6872,-21036 -3519,293 -23618,6337 -27638,10505 -1515,1571 -3993,6274 -3993,9031z"/>
   <path class="fil0" d="M156290 139141c0,3082 1731,7704 3170,9853l28320 39594c8907,12054 14783,18759 30441,6901 49067,-37159 102595,-74460 151639,-111636 16085,-12192 21212,-4325 46514,14754 5460,4117 10130,7358 15550,11429l77881 57013c6144,-11611 25556,-26278 9172,-39872l-128516 -94755c-4147,-3115 -7892,-5674 -11830,-8638 -27932,-21018 -34219,-30756 -50770,-18211 -4144,3143 -7546,5867 -11744,8723l-128594 94676c-11155,8362 -31233,19321 -31233,30169z"/>
   <path class="fil0" d="M11164 176353c0,8386 8521,31538 11525,40571 16342,49151 31313,101358 47653,150501 1885,5670 4000,13756 6375,18743 7018,14736 24393,5649 34107,2411l37717 -12520c18340,-6327 7837,-25648 3216,-40744l-47213 -148150c-7786,-23323 -13616,-31411 2997,-42816 5850,-4017 10543,-7720 16055,-11855l95955 -71499c-726,-2716 -2699,-4517 -4395,-6768 -10852,-14413 -15048,-25753 -35209,-10508l-114960 85055c-4074,3060 -7531,5645 -11695,8771l-28833 21403c-2182,1642 -4002,2646 -6011,4223 -3861,3030 -7284,6530 -7284,13182z"/>
   <path class="fil0" d="M372120 191237c0,11171 20059,22260 32028,31233l127198 94213c20934,15377 13078,18620 6564,42204l-38338 120743c5050,2423 20822,7442 27909,7442 10929,0 13587,-14303 15699,-20581 1625,-4828 2739,-9195 4415,-14191 15142,-45141 29231,-94610 44191,-139079 2683,-7976 12909,-38104 12909,-42908 0,-11003 -9377,-15411 -18074,-21930l-151771 -112433c-12482,-9429 -19340,-10804 -29797,4493l-29093 40680c-1989,2630 -3840,5709 -3840,10114z"/>
  </g>
 </g>
</svg>
